<svg xmlns="http://www.w3.org/2000/svg" width="830" height="46" viewBox="0 0 830 46" fill="none" role="img">
<rect x="0" y="10" width="6" height="26" rx="1" fill="#28A496"/>
<path transform="translate(20.00 31.00)" fill="#E9EFEC" d="M8.693999999999999 0.276Q6.279 0.276 4.5655 -0.575Q2.852 -1.426 1.9434999999999998 -3.2315Q1.035 -5.037 1.035 -7.889Q1.035 -12.052 3.059 -14.052999999999999Q5.083 -16.054 8.693999999999999 -16.054Q10.649 -16.054 12.224499999999999 -15.386999999999999Q13.799999999999999 -14.719999999999999 14.7315 -13.3745Q15.663 -12.029 15.663 -9.959H12.604Q12.604 -11.109 12.1095 -11.9025Q11.615 -12.696 10.741 -13.11Q9.866999999999999 -13.524 8.74 -13.524Q7.176 -13.524 6.141 -12.9145Q5.106 -12.305 4.6114999999999995 -11.109Q4.117 -9.913 4.117 -8.142V-7.636Q4.117 -5.842 4.6114999999999995 -4.646Q5.106 -3.4499999999999997 6.1295 -2.852Q7.153 -2.254 8.74 -2.254Q9.936 -2.254 10.833 -2.6565000000000003Q11.73 -3.059 12.224499999999999 -3.8525Q12.719 -4.646 12.719 -5.796H15.663Q15.663 -3.726 14.743 -2.3805Q13.823 -1.035 12.2475 -0.37949999999999995Q10.672 0.276 8.693999999999999 0.276Z M26.176000000000002 0.276Q23.715 0.276 21.921 -0.6094999999999999Q20.127 -1.4949999999999999 19.1725 -3.312Q18.218 -5.129 18.218 -7.889Q18.218 -10.672 19.1725 -12.4775Q20.127 -14.283 21.921 -15.168499999999998Q23.715 -16.054 26.176000000000002 -16.054Q28.66 -16.054 30.442500000000003 -15.168499999999998Q32.225 -14.283 33.179500000000004 -12.4775Q34.134 -10.672 34.134 -7.889Q34.134 -5.129 33.179500000000004 -3.312Q32.225 -1.4949999999999999 30.442500000000003 -0.6094999999999999Q28.66 0.276 26.176000000000002 0.276ZM26.176000000000002 -2.254Q27.372 -2.254 28.2805 -2.599Q29.189 -2.944 29.81 -3.6225Q30.430999999999997 -4.301 30.753 -5.3015Q31.075 -6.302 31.075 -7.6129999999999995V-8.119Q31.075 -9.453 30.753 -10.465Q30.430999999999997 -11.477 29.81 -12.1555Q29.189 -12.834 28.2805 -13.178999999999998Q27.372 -13.524 26.176000000000002 -13.524Q24.98 -13.524 24.0715 -13.178999999999998Q23.163 -12.834 22.542 -12.1555Q21.921 -11.477 21.610500000000002 -10.465Q21.3 -9.453 21.3 -8.119V-7.6129999999999995Q21.3 -6.302 21.610500000000002 -5.3015Q21.921 -4.301 22.542 -3.6225Q23.163 -2.944 24.0715 -2.599Q24.98 -2.254 26.176000000000002 -2.254Z M37.517 0.0V-15.778H40.36900000000001L47.108000000000004 -6.463Q47.223000000000006 -6.325 47.384 -6.0835Q47.545 -5.842 47.68300000000001 -5.612Q47.821000000000005 -5.382 47.867000000000004 -5.244H47.982000000000006Q47.982000000000006 -5.566 47.982000000000006 -5.865Q47.982000000000006 -6.164 47.982000000000006 -6.463V-15.778H50.857000000000006V0.0H48.028000000000006L41.266000000000005 -9.384Q41.08200000000001 -9.66 40.840500000000006 -10.0625Q40.599000000000004 -10.465 40.507000000000005 -10.626H40.392Q40.392 -10.327 40.392 -10.0165Q40.392 -9.706 40.392 -9.384V0.0Z M58.81700000000001 0.0V-13.202H53.78000000000001V-15.778H66.867V-13.202H61.807V0.0Z M66.202 0.0 72.343 -15.778H76.11500000000001L82.279 0.0H79.036L77.771 -3.358H70.549L69.284 0.0ZM71.492 -5.888H76.805L75.218 -10.166Q75.126 -10.395999999999999 74.99950000000001 -10.7525Q74.873 -11.109 74.73500000000001 -11.5345Q74.59700000000001 -11.959999999999999 74.459 -12.396999999999998Q74.321 -12.834 74.206 -13.179H74.09100000000001Q73.953 -12.719 73.7575 -12.120999999999999Q73.562 -11.523 73.378 -10.994Q73.194 -10.465 73.07900000000001 -10.166Z M91.343 0.276Q88.928 0.276 87.2145 -0.575Q85.501 -1.426 84.5925 -3.2315Q83.684 -5.037 83.684 -7.889Q83.684 -12.052 85.708 -14.052999999999999Q87.732 -16.054 91.343 -16.054Q93.298 -16.054 94.8735 -15.386999999999999Q96.449 -14.719999999999999 97.3805 -13.3745Q98.312 -12.029 98.312 -9.959H95.253Q95.253 -11.109 94.7585 -11.9025Q94.264 -12.696 93.39 -13.11Q92.516 -13.524 91.389 -13.524Q89.825 -13.524 88.78999999999999 -12.9145Q87.755 -12.305 87.26050000000001 -11.109Q86.766 -9.913 86.766 -8.142V-7.636Q86.766 -5.842 87.26050000000001 -4.646Q87.755 -3.4499999999999997 88.77850000000001 -2.852Q89.802 -2.254 91.389 -2.254Q92.58500000000001 -2.254 93.482 -2.6565000000000003Q94.379 -3.059 94.8735 -3.8525Q95.368 -4.646 95.368 -5.796H98.312Q98.312 -3.726 97.392 -2.3805Q96.47200000000001 -1.035 94.8965 -0.37949999999999995Q93.321 0.276 91.343 0.276Z M104.984 0.0V-13.202H99.947V-15.778H113.03399999999999V-13.202H107.974V0.0Z"/>
<rect x="151.6" y="22" width="648.6" height="1" fill="#2B3439"/>
<path transform="translate(814.20 27.00)" fill="#8B989A" d="M3.6 0.12Q2.7600000000000002 0.12 2.1420000000000003 -0.20400000000000001Q1.524 -0.528 1.188 -1.116Q0.852 -1.704 0.852 -2.484V-6.276Q0.852 -7.0680000000000005 1.188 -7.65Q1.524 -8.232 2.1420000000000003 -8.556000000000001Q2.7600000000000002 -8.88 3.6 -8.88Q4.452 -8.88 5.064 -8.556000000000001Q5.676 -8.232 6.0120000000000005 -7.65Q6.348 -7.0680000000000005 6.348 -6.276V-2.484Q6.348 -1.704 6.0120000000000005 -1.116Q5.676 -0.528 5.058 -0.20400000000000001Q4.44 0.12 3.6 0.12ZM3.6 -1.08Q4.248 -1.08 4.632 -1.4700000000000002Q5.016 -1.86 5.016 -2.484V-6.276Q5.016 -6.9 4.632 -7.29Q4.248 -7.68 3.6 -7.68Q2.952 -7.68 2.568 -7.29Q2.184 -6.9 2.184 -6.276V-2.484Q2.184 -1.86 2.568 -1.4700000000000002Q2.952 -1.08 3.6 -1.08ZM3.6 -3.624Q3.2520000000000002 -3.624 3.042 -3.84Q2.832 -4.056 2.832 -4.416Q2.832 -4.764 3.042 -4.974Q3.2520000000000002 -5.184 3.6 -5.184Q3.948 -5.184 4.158 -4.974Q4.368 -4.764 4.368 -4.416Q4.368 -4.056 4.158 -3.84Q3.948 -3.624 3.6 -3.624Z M13.34 0.0V-1.776H9.427999999999999V-3.84L12.812 -8.76H14.372L10.772 -3.48V-3.024H13.34V-5.04H14.732V0.0Z"/>
</svg>
