<svg xmlns="http://www.w3.org/2000/svg" width="760" height="176" viewBox="0 0 760 176" fill="none" role="img">
<rect x="0" y="0" width="760" height="176" fill="none"/>
<path transform="translate(87.18 92.00)" fill="#E9EFEC" d="M4.408 0.0V-39.788000000000004H27.144000000000002Q30.276 -39.788000000000004 32.799 -38.57000000000001Q35.322 -37.352000000000004 36.772000000000006 -35.148Q38.222 -32.944 38.222 -29.986Q38.222 -27.608 37.352000000000004 -25.752000000000002Q36.482 -23.896 35.003 -22.678Q33.524 -21.46 31.668000000000003 -20.880000000000003V-20.648Q33.872 -20.184 35.583 -18.908Q37.294000000000004 -17.632 38.309000000000005 -15.631Q39.324000000000005 -13.63 39.324000000000005 -10.904Q39.324000000000005 -7.308000000000001 37.67100000000001 -4.872Q36.018 -2.436 33.292 -1.218Q30.566000000000003 0.0 27.202 0.0ZM13.05 -7.0760000000000005H25.52Q27.666 -7.0760000000000005 29.029000000000003 -8.294Q30.392000000000003 -9.512 30.392000000000003 -12.064Q30.392000000000003 -13.572000000000001 29.812000000000005 -14.674000000000001Q29.232000000000003 -15.776000000000002 28.072000000000003 -16.385Q26.912000000000003 -16.994 25.114 -16.994H13.05ZM13.05 -23.722H24.534000000000002Q26.1 -23.722 27.173000000000002 -24.331000000000003Q28.246000000000002 -24.94 28.797000000000004 -25.955000000000002Q29.348000000000003 -26.970000000000002 29.348000000000003 -28.304000000000002Q29.348000000000003 -30.566000000000003 28.101000000000003 -31.726000000000003Q26.854000000000003 -32.886 24.824 -32.886H13.05Z M57.032000000000004 0.6960000000000001Q52.45 0.6960000000000001 49.231 -0.667Q46.012 -2.0300000000000002 44.301 -4.756Q42.59 -7.482 42.59 -11.658000000000001V-13.456000000000001H51.058V-11.658000000000001Q51.058 -8.99 52.537000000000006 -7.6850000000000005Q54.016000000000005 -6.38 56.974000000000004 -6.38Q59.816 -6.38 61.266000000000005 -8.265Q62.71600000000001 -10.15 62.71600000000001 -13.688V-39.788000000000004H71.416V-13.688Q71.416 -8.874 69.73400000000001 -5.655Q68.052 -2.436 64.833 -0.8699999999999999Q61.614000000000004 0.6960000000000001 57.032000000000004 0.6960000000000001Z M97.418 0.6960000000000001Q91.096 0.6960000000000001 86.51400000000001 -1.566Q81.932 -3.8280000000000003 79.49600000000001 -8.41Q77.06 -12.992 77.06 -19.894000000000002Q77.06 -26.912000000000003 79.49600000000001 -31.465000000000003Q81.932 -36.018 86.51400000000001 -38.251000000000005Q91.096 -40.484 97.418 -40.484Q103.85600000000001 -40.484 108.409 -38.251000000000005Q112.962 -36.018 115.398 -31.465000000000003Q117.834 -26.912000000000003 117.834 -19.894000000000002Q117.834 -12.992 115.398 -8.41Q112.962 -3.8280000000000003 108.409 -1.566Q103.85600000000001 0.6960000000000001 97.418 0.6960000000000001ZM97.418 -6.38Q100.26 -6.38 102.406 -7.192Q104.552 -8.004 106.00200000000001 -9.628Q107.452 -11.252 108.206 -13.601Q108.96000000000001 -15.950000000000001 108.96000000000001 -18.966V-20.764Q108.96000000000001 -23.838 108.206 -26.216Q107.452 -28.594 106.00200000000001 -30.189Q104.552 -31.784000000000002 102.406 -32.596000000000004Q100.26 -33.408 97.418 -33.408Q94.634 -33.408 92.488 -32.596000000000004Q90.342 -31.784000000000002 88.892 -30.189Q87.44200000000001 -28.594 86.71700000000001 -26.216Q85.992 -23.838 85.992 -20.764V-18.966Q85.992 -15.950000000000001 86.71700000000001 -13.601Q87.44200000000001 -11.252 88.892 -9.628Q90.342 -8.004 92.488 -7.192Q94.634 -6.38 97.418 -6.38Z M123.652 0.0V-39.788000000000004H145.46Q149.868 -39.788000000000004 152.797 -38.222Q155.726 -36.656 157.176 -33.843Q158.626 -31.03 158.626 -27.376Q158.626 -23.490000000000002 156.88600000000002 -20.503Q155.14600000000002 -17.516000000000002 151.84 -15.950000000000001L159.96 0.0H150.39L143.372 -14.5H132.294V0.0ZM132.294 -21.344H144.3Q146.91 -21.344 148.36 -22.939Q149.81 -24.534000000000002 149.81 -27.26Q149.81 -29.0 149.172 -30.247Q148.534 -31.494000000000003 147.316 -32.132000000000005Q146.098 -32.77 144.3 -32.77H132.294Z M164.792 0.0V-39.788000000000004H172.73800000000003L188.746 -18.328Q189.09400000000002 -17.922 189.616 -17.197000000000003Q190.138 -16.472 190.60200000000003 -15.776Q191.06600000000003 -15.08 191.24 -14.674000000000001H191.53000000000003Q191.53000000000003 -15.66 191.53000000000003 -16.617Q191.53000000000003 -17.574 191.53000000000003 -18.328V-39.788000000000004H199.70800000000003V0.0H191.762L175.406 -21.982000000000003Q174.82600000000002 -22.794 174.18800000000002 -23.78Q173.55 -24.766000000000002 173.26000000000002 -25.288H172.97000000000003Q172.97000000000003 -24.418000000000003 172.97000000000003 -23.577Q172.97000000000003 -22.736 172.97000000000003 -21.982000000000003V0.0Z M228.16400000000002 0.0 213.78 -39.788000000000004H223.118L231.702 -14.384Q231.934 -13.746 232.224 -12.847000000000001Q232.514 -11.948 232.804 -11.078Q233.094 -10.208 233.268 -9.512H233.616Q233.848 -10.15 234.109 -10.991Q234.37 -11.832 234.631 -12.702000000000002Q234.892 -13.572000000000001 235.124 -14.326L243.708 -39.788000000000004H252.698L238.256 0.0Z M256.544 0.0V-39.788000000000004H288.328V-32.712H265.24399999999997V-23.838H285.65999999999997V-16.82H265.24399999999997V-7.134H288.676V0.0Z M294.958 0.0V-39.788000000000004H316.766Q321.17400000000004 -39.788000000000004 324.10300000000007 -38.222Q327.03200000000004 -36.656 328.482 -33.843Q329.932 -31.03 329.932 -27.376Q329.932 -23.490000000000002 328.192 -20.503Q326.452 -17.516000000000002 323.146 -15.950000000000001L331.266 0.0H321.696L314.678 -14.5H303.6V0.0ZM303.6 -21.344H315.606Q318.216 -21.344 319.666 -22.939Q321.116 -24.534000000000002 321.116 -27.26Q321.116 -29.0 320.478 -30.247Q319.84000000000003 -31.494000000000003 318.622 -32.132000000000005Q317.404 -32.77 315.606 -32.77H303.6Z M351.584 0.6960000000000001Q348.104 0.6960000000000001 344.972 0.0Q341.84 -0.6960000000000001 339.433 -2.233Q337.026 -3.77 335.663 -6.119Q334.3 -8.468 334.3 -11.832Q334.3 -12.122 334.3 -12.440999999999999Q334.3 -12.76 334.358 -12.934000000000001H342.942Q342.884 -12.76 342.884 -12.47Q342.884 -12.180000000000001 342.884 -11.948Q342.884 -10.092 343.899 -8.816Q344.914 -7.54 346.88599999999997 -6.902Q348.858 -6.264 351.468 -6.264Q353.15 -6.264 354.455 -6.4670000000000005Q355.76 -6.67 356.775 -7.047000000000001Q357.79 -7.424 358.457 -7.946Q359.124 -8.468 359.443 -9.164000000000001Q359.762 -9.860000000000001 359.762 -10.73Q359.762 -12.296000000000001 358.74699999999996 -13.282Q357.73199999999997 -14.268 355.96299999999997 -14.964Q354.194 -15.66 351.99 -16.240000000000002Q349.786 -16.82 347.466 -17.429000000000002Q345.146 -18.038 342.942 -18.937Q340.738 -19.836000000000002 338.998 -21.112000000000002Q337.258 -22.388 336.214 -24.36Q335.17 -26.332 335.17 -29.116000000000003Q335.17 -32.074000000000005 336.41700000000003 -34.22Q337.664 -36.366 339.926 -37.757999999999996Q342.188 -39.15 345.14599999999996 -39.817Q348.104 -40.484 351.584 -40.484Q354.832 -40.484 357.73199999999997 -39.817Q360.632 -39.15 362.836 -37.7Q365.04 -36.25 366.28700000000003 -34.046Q367.534 -31.842000000000002 367.534 -28.826V-28.130000000000003H359.124V-28.594Q359.124 -30.16 358.196 -31.262Q357.26800000000003 -32.364000000000004 355.586 -33.002Q353.904 -33.64 351.642 -33.64Q349.206 -33.64 347.495 -33.176Q345.784 -32.712 344.885 -31.813000000000002Q343.986 -30.914 343.986 -29.696Q343.986 -28.304000000000002 345.001 -27.405Q346.016 -26.506 347.78499999999997 -25.839Q349.554 -25.172 351.758 -24.65Q353.962 -24.128 356.282 -23.490000000000002Q358.602 -22.852 360.806 -21.982Q363.01 -21.112000000000002 364.75 -19.807000000000002Q366.49 -18.502000000000002 367.534 -16.588Q368.578 -14.674000000000001 368.578 -12.006Q368.578 -7.424 366.374 -4.640000000000001Q364.17 -1.856 360.342 -0.5800000000000001Q356.514 0.6960000000000001 351.584 0.6960000000000001Z M392.086 0.6960000000000001Q385.88 0.6960000000000001 381.472 -1.479Q377.064 -3.6540000000000004 374.773 -8.236Q372.482 -12.818000000000001 372.482 -19.894000000000002Q372.482 -30.334000000000003 377.615 -35.409000000000006Q382.748 -40.484 392.086 -40.484Q397.19 -40.484 401.25 -38.744Q405.31 -37.004000000000005 407.659 -33.524Q410.00800000000004 -30.044 410.00800000000004 -24.766000000000002H401.308Q401.308 -27.55 400.177 -29.464Q399.046 -31.378 396.98699999999997 -32.393Q394.928 -33.408 392.202 -33.408Q388.49 -33.408 386.08299999999997 -31.958000000000002Q383.676 -30.508000000000003 382.54499999999996 -27.695Q381.414 -24.882 381.414 -20.822000000000003V-19.024Q381.414 -14.848 382.574 -12.035Q383.73400000000004 -9.222000000000001 386.083 -7.801Q388.432 -6.38 392.144 -6.38Q395.04400000000004 -6.38 397.19000000000005 -7.366Q399.336 -8.352 400.496 -10.266000000000002Q401.656 -12.180000000000001 401.656 -14.964H410.00800000000004Q410.00800000000004 -9.686 407.71700000000004 -6.2059999999999995Q405.42600000000004 -2.726 401.36600000000004 -1.015Q397.30600000000004 0.6960000000000001 392.086 0.6960000000000001Z M415.59400000000005 0.0V-39.788000000000004H424.23600000000005V-24.012H441.86800000000005V-39.788000000000004H450.51000000000005V0.0H441.86800000000005V-16.704H424.23600000000005V0.0Z M476.68600000000004 0.6960000000000001Q470.36400000000003 0.6960000000000001 465.78200000000004 -1.566Q461.20000000000005 -3.8280000000000003 458.764 -8.41Q456.32800000000003 -12.992 456.32800000000003 -19.894000000000002Q456.32800000000003 -26.912000000000003 458.764 -31.465000000000003Q461.20000000000005 -36.018 465.78200000000004 -38.251000000000005Q470.36400000000003 -40.484 476.68600000000004 -40.484Q483.124 -40.484 487.677 -38.251000000000005Q492.23 -36.018 494.66600000000005 -31.465000000000003Q497.10200000000003 -26.912000000000003 497.10200000000003 -19.894000000000002Q497.10200000000003 -12.992 494.66600000000005 -8.41Q492.23 -3.8280000000000003 487.677 -1.566Q483.124 0.6960000000000001 476.68600000000004 0.6960000000000001ZM476.68600000000004 -6.38Q479.528 -6.38 481.674 -7.192Q483.82 -8.004 485.27 -9.628Q486.72 -11.252 487.47400000000005 -13.601Q488.228 -15.950000000000001 488.228 -18.966V-20.764Q488.228 -23.838 487.47400000000005 -26.216Q486.72 -28.594 485.27 -30.189Q483.82 -31.784000000000002 481.674 -32.596000000000004Q479.528 -33.408 476.68600000000004 -33.408Q473.90200000000004 -33.408 471.75600000000003 -32.596000000000004Q469.61 -31.784000000000002 468.16 -30.189Q466.71000000000004 -28.594 465.985 -26.216Q465.26 -23.838 465.26 -20.764V-18.966Q465.26 -15.950000000000001 465.985 -13.601Q466.71000000000004 -11.252 468.16 -9.628Q469.61 -8.004 471.75600000000003 -7.192Q473.90200000000004 -6.38 476.68600000000004 -6.38Z M521.48 0.6960000000000001Q515.158 0.6960000000000001 510.576 -1.566Q505.994 -3.8280000000000003 503.558 -8.41Q501.122 -12.992 501.122 -19.894000000000002Q501.122 -26.912000000000003 503.558 -31.465000000000003Q505.994 -36.018 510.576 -38.251000000000005Q515.158 -40.484 521.48 -40.484Q527.918 -40.484 532.471 -38.251000000000005Q537.024 -36.018 539.46 -31.465000000000003Q541.896 -26.912000000000003 541.896 -19.894000000000002Q541.896 -12.992 539.46 -8.41Q537.024 -3.8280000000000003 532.471 -1.566Q527.918 0.6960000000000001 521.48 0.6960000000000001ZM521.48 -6.38Q524.322 -6.38 526.4680000000001 -7.192Q528.614 -8.004 530.0640000000001 -9.628Q531.514 -11.252 532.268 -13.601Q533.022 -15.950000000000001 533.022 -18.966V-20.764Q533.022 -23.838 532.268 -26.216Q531.514 -28.594 530.0640000000001 -30.189Q528.614 -31.784000000000002 526.4680000000001 -32.596000000000004Q524.322 -33.408 521.48 -33.408Q518.696 -33.408 516.55 -32.596000000000004Q514.404 -31.784000000000002 512.954 -30.189Q511.504 -28.594 510.779 -26.216Q510.054 -23.838 510.054 -20.764V-18.966Q510.054 -15.950000000000001 510.779 -13.601Q511.504 -11.252 512.954 -9.628Q514.404 -8.004 516.55 -7.192Q518.696 -6.38 521.48 -6.38Z M547.714 0.0V-39.788000000000004H569.522Q573.9300000000001 -39.788000000000004 576.859 -38.222Q579.788 -36.656 581.238 -33.843Q582.6880000000001 -31.03 582.6880000000001 -27.376Q582.6880000000001 -23.490000000000002 580.9480000000001 -20.503Q579.2080000000001 -17.516000000000002 575.902 -15.950000000000001L584.022 0.0H574.452L567.4340000000001 -14.5H556.356V0.0ZM556.356 -21.344H568.3620000000001Q570.9720000000001 -21.344 572.422 -22.939Q573.8720000000001 -24.534000000000002 573.8720000000001 -27.26Q573.8720000000001 -29.0 573.234 -30.247Q572.596 -31.494000000000003 571.378 -32.132000000000005Q570.1600000000001 -32.77 568.3620000000001 -32.77H556.356Z"/>
<rect x="314.0" y="112" width="132" height="4" rx="2" fill="#28A496"/>
<path transform="translate(89.60 148.00)" fill="#8B989A" d="M1.05 0.0V-9.137500000000001H6.65V-7.7875000000000005H2.475V-5.2H6.325V-3.85H2.5V0.0Z M12.85 0.125Q11.525 0.125 10.79375 -0.6000000000000001Q10.0625 -1.3250000000000002 10.0625 -2.575V-9.125H11.5125V-2.5875000000000004Q11.5125 -1.9125 11.85 -1.53125Q12.1875 -1.1500000000000001 12.85 -1.1500000000000001Q13.5 -1.1500000000000001 13.84375 -1.53125Q14.1875 -1.9125 14.1875 -2.5875000000000004V-9.125H15.6375V-2.575Q15.6375 -1.3250000000000002 14.9125 -0.6000000000000001Q14.1875 0.125 12.85 0.125Z M19.525 0.0V-9.125H20.9875V-1.35H24.9125V0.0Z M28.624999999999996 0.0V-9.125H30.0875V-1.35H34.012499999999996V0.0Z M38.15 -3.4625000000000004V-4.7875000000000005H42.15V-3.4625000000000004Z M49.275 0.125Q48.35 0.125 47.675 -0.1875Q47.0 -0.5 46.63125 -1.0750000000000002Q46.2625 -1.6500000000000001 46.2625 -2.4250000000000003H47.7125Q47.7125 -1.8375000000000001 48.1375 -1.5Q48.5625 -1.1625 49.3 -1.1625Q49.9875 -1.1625 50.3875 -1.4937500000000001Q50.7875 -1.8250000000000002 50.7875 -2.4125Q50.7875 -2.9000000000000004 50.5125 -3.2562500000000005Q50.2375 -3.6125000000000003 49.725 -3.7375000000000003L48.625 -4.05Q47.5875 -4.3375 47.025 -5.04375Q46.4625 -5.75 46.4625 -6.7250000000000005Q46.4625 -7.5 46.80625 -8.0625Q47.15 -8.625 47.78125 -8.943750000000001Q48.4125 -9.262500000000001 49.275 -9.262500000000001Q50.575 -9.262500000000001 51.337500000000006 -8.58125Q52.1 -7.9 52.1125 -6.7625H50.65Q50.65 -7.325 50.287499999999994 -7.65Q49.925 -7.9750000000000005 49.2625 -7.9750000000000005Q48.625 -7.9750000000000005 48.26875 -7.668750000000001Q47.9125 -7.362500000000001 47.9125 -6.825Q47.9125 -6.325 48.181250000000006 -5.975Q48.45 -5.625 48.95 -5.4750000000000005L50.0875 -5.15Q51.125 -4.875 51.68125 -4.175Q52.2375 -3.475 52.2375 -2.4625000000000004Q52.2375 -1.6875 51.86875 -1.10625Q51.5 -0.525 50.8375 -0.2Q50.175 0.125 49.275 0.125Z M57.625 0.0V-7.7875000000000005H55.2V-9.137500000000001H61.5V-7.7875000000000005H59.075V0.0Z M64.1875 0.0 66.5 -9.125H68.4L70.7125 0.0H69.2375L68.7 -2.2625H66.2L65.675 0.0ZM66.4625 -3.4625000000000004H68.425L67.85000000000001 -6.0Q67.7 -6.65 67.59375 -7.1625000000000005Q67.4875 -7.675000000000001 67.45 -7.875Q67.41250000000001 -7.675000000000001 67.3125 -7.168750000000001Q67.2125 -6.6625000000000005 67.0625 -6.0125Z M76.6 0.125Q75.7375 0.125 75.09375 -0.2Q74.45 -0.525 74.1 -1.13125Q73.75 -1.7375 73.75 -2.5500000000000003V-6.575Q73.75 -7.4 74.1 -8.0Q74.45 -8.6 75.09375 -8.925Q75.7375 -9.25 76.6 -9.25Q77.475 -9.25 78.10624999999999 -8.91875Q78.7375 -8.5875 79.0875 -7.99375Q79.4375 -7.4 79.4375 -6.575H77.9875Q77.9875 -7.25 77.625 -7.60625Q77.2625 -7.9625 76.6 -7.9625Q75.9375 -7.9625 75.56875 -7.60625Q75.2 -7.25 75.2 -6.575V-2.5500000000000003Q75.2 -1.8875000000000002 75.56875 -1.5250000000000001Q75.9375 -1.1625 76.6 -1.1625Q77.2625 -1.1625 77.625 -1.5250000000000001Q77.9875 -1.8875000000000002 77.9875 -2.5500000000000003H79.4375Q79.4375 -1.75 79.0875 -1.14375Q78.7375 -0.5375 78.10624999999999 -0.20625Q77.475 0.125 76.6 0.125Z M82.89999999999999 0.0V-9.125H84.3625V-5.375H85.49999999999999L87.3 -9.125H88.87499999999999L86.7875 -4.75L88.9875 0.0H87.35L85.4875 -4.0625H84.3625V0.0Z M101.08749999999998 0.0V-9.125H103.71249999999998Q104.63749999999997 -9.125 105.30624999999998 -8.775Q105.97499999999998 -8.425 106.34999999999998 -7.793750000000001Q106.72499999999998 -7.1625000000000005 106.72499999999998 -6.300000000000001V-2.8375000000000004Q106.72499999999998 -1.975 106.34999999999998 -1.3375000000000001Q105.97499999999998 -0.7000000000000001 105.30624999999998 -0.35000000000000003Q104.63749999999997 0.0 103.71249999999998 0.0ZM102.54999999999998 -1.3375000000000001H103.71249999999998Q104.43749999999999 -1.3375000000000001 104.84999999999998 -1.7375000000000003Q105.26249999999997 -2.1375 105.26249999999997 -2.8375000000000004V-6.300000000000001Q105.26249999999997 -6.987500000000001 104.84999999999998 -7.387500000000001Q104.43749999999999 -7.7875000000000005 103.71249999999998 -7.7875000000000005H102.54999999999998Z M110.33749999999998 0.0V-9.125H115.74999999999997V-7.8500000000000005H111.77499999999998V-5.362500000000001H115.31249999999997V-4.0875H111.77499999999998V-1.2750000000000001H115.74999999999997V0.0Z M121.09999999999997 0.0 118.78749999999997 -9.125H120.28749999999997L121.71249999999996 -3.1125000000000003Q121.83749999999996 -2.625 121.93749999999997 -2.1125Q122.03749999999997 -1.6 122.08749999999996 -1.2875Q122.13749999999997 -1.6 122.23124999999997 -2.1125Q122.32499999999997 -2.625 122.44999999999997 -3.125L123.84999999999997 -9.125H125.31249999999997L122.99999999999997 0.0Z M128.53749999999997 0.0V-9.125H133.94999999999996V-7.8500000000000005H129.97499999999997V-5.362500000000001H133.51249999999996V-4.0875H129.97499999999997V-1.2750000000000001H133.94999999999996V0.0Z M137.82499999999996 0.0V-9.125H139.28749999999997V-1.35H143.21249999999998V0.0Z M149.34999999999997 0.125Q148.48749999999995 0.125 147.85624999999996 -0.2Q147.22499999999997 -0.525 146.88749999999996 -1.13125Q146.54999999999995 -1.7375 146.54999999999995 -2.5500000000000003V-6.575Q146.54999999999995 -7.4 146.88749999999996 -8.0Q147.22499999999997 -8.6 147.85624999999996 -8.925Q148.48749999999995 -9.25 149.34999999999997 -9.25Q150.22499999999997 -9.25 150.84999999999997 -8.925Q151.47499999999997 -8.6 151.81249999999997 -8.0Q152.14999999999998 -7.4 152.14999999999998 -6.575V-2.5500000000000003Q152.14999999999998 -1.7375 151.81249999999997 -1.13125Q151.47499999999997 -0.525 150.84999999999997 -0.2Q150.22499999999997 0.125 149.34999999999997 0.125ZM149.34999999999997 -1.1625Q150.01249999999996 -1.1625 150.35624999999996 -1.5250000000000001Q150.69999999999996 -1.8875000000000002 150.69999999999996 -2.5500000000000003V-6.575Q150.69999999999996 -7.25 150.35624999999996 -7.60625Q150.01249999999996 -7.9625 149.34999999999997 -7.9625Q148.68749999999997 -7.9625 148.34374999999997 -7.60625Q147.99999999999997 -7.25 147.99999999999997 -6.575V-2.5500000000000003Q147.99999999999997 -1.8875000000000002 148.34999999999997 -1.5250000000000001Q148.69999999999996 -1.1625 149.34999999999997 -1.1625Z M155.69999999999996 0.0V-9.125H158.72499999999997Q159.62499999999997 -9.125 160.28749999999997 -8.78125Q160.94999999999996 -8.4375 161.31874999999997 -7.8125Q161.68749999999997 -7.1875 161.68749999999997 -6.3375Q161.68749999999997 -5.5125 161.31874999999997 -4.88125Q160.94999999999996 -4.25 160.28749999999997 -3.90625Q159.62499999999997 -3.5625 158.72499999999997 -3.5625H157.16249999999997V0.0ZM157.16249999999997 -4.875H158.72499999999997Q159.39999999999995 -4.875 159.80624999999995 -5.275Q160.21249999999995 -5.675000000000001 160.21249999999995 -6.3375Q160.21249999999995 -7.025 159.80624999999995 -7.41875Q159.39999999999995 -7.8125 158.72499999999997 -7.8125H157.16249999999997Z M164.93749999999994 0.0V-9.125H170.34999999999997V-7.8500000000000005H166.37499999999994V-5.362500000000001H169.91249999999997V-4.0875H166.37499999999994V-1.2750000000000001H170.34999999999997V0.0Z M173.89999999999995 0.0V-9.125H176.77499999999995Q177.66249999999994 -9.125 178.31874999999994 -8.79375Q178.97499999999994 -8.4625 179.33749999999995 -7.85625Q179.69999999999996 -7.25 179.69999999999996 -6.4375Q179.69999999999996 -5.525 179.23749999999995 -4.84375Q178.77499999999995 -4.1625000000000005 177.98749999999995 -3.8875L179.82499999999996 0.0H178.18749999999994L176.54999999999995 -3.6875H175.34999999999994V0.0ZM175.34999999999994 -4.9750000000000005H176.77499999999995Q177.43749999999994 -4.9750000000000005 177.83124999999995 -5.356250000000001Q178.22499999999994 -5.737500000000001 178.22499999999994 -6.4Q178.22499999999994 -7.0625 177.83124999999995 -7.45Q177.43749999999994 -7.8375 176.77499999999995 -7.8375H175.34999999999994Z M210.09999999999994 1.375 214.48749999999993 -10.375H215.99999999999991L211.61249999999993 1.375Z M246.74999999999991 0.0V-9.137500000000001H252.3499999999999V-7.7875000000000005H248.1749999999999V-5.2H252.0249999999999V-3.85H248.1999999999999V0.0Z M258.5499999999999 0.125Q257.6874999999999 0.125 257.05624999999986 -0.2Q256.4249999999999 -0.525 256.08749999999986 -1.13125Q255.7499999999999 -1.7375 255.7499999999999 -2.5500000000000003V-6.575Q255.7499999999999 -7.4 256.08749999999986 -8.0Q256.4249999999999 -8.6 257.05624999999986 -8.925Q257.6874999999999 -9.25 258.5499999999999 -9.25Q259.4249999999999 -9.25 260.0499999999999 -8.925Q260.6749999999999 -8.6 261.01249999999993 -8.0Q261.3499999999999 -7.4 261.3499999999999 -6.575V-2.5500000000000003Q261.3499999999999 -1.7375 261.01249999999993 -1.13125Q260.6749999999999 -0.525 260.0499999999999 -0.2Q259.4249999999999 0.125 258.5499999999999 0.125ZM258.5499999999999 -1.1625Q259.2124999999999 -1.1625 259.5562499999999 -1.5250000000000001Q259.8999999999999 -1.8875000000000002 259.8999999999999 -2.5500000000000003V-6.575Q259.8999999999999 -7.25 259.5562499999999 -7.60625Q259.2124999999999 -7.9625 258.5499999999999 -7.9625Q257.8874999999999 -7.9625 257.5437499999999 -7.60625Q257.1999999999999 -7.25 257.1999999999999 -6.575V-2.5500000000000003Q257.1999999999999 -1.8875000000000002 257.5499999999999 -1.5250000000000001Q257.8999999999999 -1.1625 258.5499999999999 -1.1625Z M267.6499999999999 0.125Q266.32499999999993 0.125 265.5937499999999 -0.6000000000000001Q264.8624999999999 -1.3250000000000002 264.8624999999999 -2.575V-9.125H266.31249999999994V-2.5875000000000004Q266.31249999999994 -1.9125 266.6499999999999 -1.53125Q266.9874999999999 -1.1500000000000001 267.6499999999999 -1.1500000000000001Q268.2999999999999 -1.1500000000000001 268.6437499999999 -1.53125Q268.9874999999999 -1.9125 268.9874999999999 -2.5875000000000004V-9.125H270.43749999999994V-2.575Q270.43749999999994 -1.3250000000000002 269.7124999999999 -0.6000000000000001Q268.9874999999999 0.125 267.6499999999999 0.125Z M273.9624999999999 0.0V-9.125H275.76249999999993L278.36249999999995 -1.6500000000000001Q278.3374999999999 -2.025 278.29374999999993 -2.54375Q278.24999999999994 -3.0625 278.2249999999999 -3.61875Q278.19999999999993 -4.175 278.19999999999993 -4.6125V-9.125H279.53749999999997V0.0H277.73749999999995L275.1499999999999 -7.4750000000000005Q275.18749999999994 -7.1375 275.21874999999994 -6.6375Q275.24999999999994 -6.1375 275.275 -5.60625Q275.29999999999995 -5.075 275.29999999999995 -4.625V0.0Z M283.0875 0.0V-9.125H285.7125Q286.6375 -9.125 287.30625 -8.775Q287.97499999999997 -8.425 288.34999999999997 -7.793750000000001Q288.72499999999997 -7.1625000000000005 288.72499999999997 -6.300000000000001V-2.8375000000000004Q288.72499999999997 -1.975 288.34999999999997 -1.3375000000000001Q287.97499999999997 -0.7000000000000001 287.30625 -0.35000000000000003Q286.6375 0.0 285.7125 0.0ZM284.54999999999995 -1.3375000000000001H285.7125Q286.43749999999994 -1.3375000000000001 286.84999999999997 -1.7375000000000003Q287.2625 -2.1375 287.2625 -2.8375000000000004V-6.300000000000001Q287.2625 -6.987500000000001 286.84999999999997 -7.387500000000001Q286.43749999999994 -7.7875000000000005 285.7125 -7.7875000000000005H284.54999999999995Z M292.3375 0.0V-9.125H297.75V-7.8500000000000005H293.775V-5.362500000000001H297.3125V-4.0875H293.775V-1.2750000000000001H297.75V0.0Z M301.3 0.0V-9.125H304.175Q305.0625 -9.125 305.71875 -8.79375Q306.375 -8.4625 306.7375 -7.85625Q307.1 -7.25 307.1 -6.4375Q307.1 -5.525 306.63750000000005 -4.84375Q306.175 -4.1625000000000005 305.3875 -3.8875L307.225 0.0H305.58750000000003L303.95 -3.6875H302.75V0.0ZM302.75 -4.9750000000000005H304.175Q304.83750000000003 -4.9750000000000005 305.23125000000005 -5.356250000000001Q305.625 -5.737500000000001 305.625 -6.4Q305.625 -7.0625 305.23125000000005 -7.45Q304.83750000000003 -7.8375 304.175 -7.8375H302.75Z M322.25000000000006 0.125Q321.38750000000005 0.125 320.75625 -0.2Q320.12500000000006 -0.525 319.7875 -1.13125Q319.45000000000005 -1.7375 319.45000000000005 -2.5500000000000003V-6.575Q319.45000000000005 -7.4 319.7875 -8.0Q320.12500000000006 -8.6 320.75625 -8.925Q321.38750000000005 -9.25 322.25000000000006 -9.25Q323.12500000000006 -9.25 323.75000000000006 -8.925Q324.37500000000006 -8.6 324.7125000000001 -8.0Q325.05000000000007 -7.4 325.05000000000007 -6.575V-2.5500000000000003Q325.05000000000007 -1.7375 324.7125000000001 -1.13125Q324.37500000000006 -0.525 323.75000000000006 -0.2Q323.12500000000006 0.125 322.25000000000006 0.125ZM322.25000000000006 -1.1625Q322.9125000000001 -1.1625 323.2562500000001 -1.5250000000000001Q323.6000000000001 -1.8875000000000002 323.6000000000001 -2.5500000000000003V-6.575Q323.6000000000001 -7.25 323.2562500000001 -7.60625Q322.9125000000001 -7.9625 322.25000000000006 -7.9625Q321.58750000000003 -7.9625 321.24375000000003 -7.60625Q320.90000000000003 -7.25 320.90000000000003 -6.575V-2.5500000000000003Q320.90000000000003 -1.8875000000000002 321.25000000000006 -1.5250000000000001Q321.6000000000001 -1.1625 322.25000000000006 -1.1625Z M328.6500000000001 0.0V-9.137500000000001H334.25000000000006V-7.7875000000000005H330.0750000000001V-5.2H333.92500000000007V-3.85H330.1000000000001V0.0Z M346.85000000000014 0.0V-9.137500000000001H352.4500000000001V-7.7875000000000005H348.27500000000015V-5.2H352.1250000000001V-3.85H348.3000000000001V0.0Z M356.07500000000016 0.0V-1.2875H357.91250000000014V-7.8375H356.07500000000016V-9.125H361.22500000000014V-7.8375H359.38750000000016V-1.2875H361.22500000000014V0.0Z M365.00000000000017 0.0V-9.125H366.46250000000015V-5.375H367.6000000000002L369.40000000000015 -9.125H370.9750000000002L368.88750000000016 -4.75L371.08750000000015 0.0H369.45000000000016L367.58750000000015 -4.0625H366.46250000000015V0.0Z M376.87500000000017 0.125Q375.9500000000002 0.125 375.2750000000002 -0.1875Q374.6000000000002 -0.5 374.23125000000016 -1.0750000000000002Q373.8625000000002 -1.6500000000000001 373.8625000000002 -2.4250000000000003H375.31250000000017Q375.31250000000017 -1.8375000000000001 375.7375000000002 -1.5Q376.1625000000002 -1.1625 376.9000000000002 -1.1625Q377.5875000000002 -1.1625 377.9875000000002 -1.4937500000000001Q378.3875000000002 -1.8250000000000002 378.3875000000002 -2.4125Q378.3875000000002 -2.9000000000000004 378.1125000000002 -3.2562500000000005Q377.8375000000002 -3.6125000000000003 377.3250000000002 -3.7375000000000003L376.2250000000002 -4.05Q375.18750000000017 -4.3375 374.62500000000017 -5.04375Q374.06250000000017 -5.75 374.06250000000017 -6.7250000000000005Q374.06250000000017 -7.5 374.40625000000017 -8.0625Q374.75000000000017 -8.625 375.3812500000002 -8.943750000000001Q376.0125000000002 -9.262500000000001 376.87500000000017 -9.262500000000001Q378.1750000000002 -9.262500000000001 378.9375000000002 -8.58125Q379.7000000000002 -7.9 379.7125000000002 -6.7625H378.25000000000017Q378.25000000000017 -7.325 377.88750000000016 -7.65Q377.5250000000002 -7.9750000000000005 376.8625000000002 -7.9750000000000005Q376.2250000000002 -7.9750000000000005 375.8687500000002 -7.668750000000001Q375.5125000000002 -7.362500000000001 375.5125000000002 -6.825Q375.5125000000002 -6.325 375.7812500000002 -5.975Q376.0500000000002 -5.625 376.5500000000002 -5.4750000000000005L377.68750000000017 -5.15Q378.7250000000002 -4.875 379.2812500000002 -4.175Q379.8375000000002 -3.475 379.8375000000002 -2.4625000000000004Q379.8375000000002 -1.6875 379.4687500000002 -1.10625Q379.1000000000002 -0.525 378.4375000000002 -0.2Q377.7750000000002 0.125 376.87500000000017 0.125Z M385.9500000000002 0.125Q384.6250000000002 0.125 383.8937500000002 -0.6000000000000001Q383.1625000000002 -1.3250000000000002 383.1625000000002 -2.575V-9.125H384.61250000000024V-2.5875000000000004Q384.61250000000024 -1.9125 384.9500000000002 -1.53125Q385.2875000000002 -1.1500000000000001 385.9500000000002 -1.1500000000000001Q386.6000000000002 -1.1500000000000001 386.9437500000002 -1.53125Q387.2875000000002 -1.9125 387.2875000000002 -2.5875000000000004V-9.125H388.73750000000024V-2.575Q388.73750000000024 -1.3250000000000002 388.0125000000002 -0.6000000000000001Q387.2875000000002 0.125 385.9500000000002 0.125Z M392.30000000000024 0.0V-9.125H395.3250000000002Q396.22500000000025 -9.125 396.8875000000003 -8.78125Q397.55000000000024 -8.4375 397.9187500000003 -7.8125Q398.28750000000025 -7.1875 398.28750000000025 -6.3375Q398.28750000000025 -5.5125 397.9187500000003 -4.88125Q397.55000000000024 -4.25 396.8875000000003 -3.90625Q396.22500000000025 -3.5625 395.3250000000002 -3.5625H393.7625000000002V0.0ZM393.7625000000002 -4.875H395.3250000000002Q396.0000000000002 -4.875 396.4062500000002 -5.275Q396.8125000000002 -5.675000000000001 396.8125000000002 -6.3375Q396.8125000000002 -7.025 396.4062500000002 -7.41875Q396.0000000000002 -7.8125 395.3250000000002 -7.8125H393.7625000000002Z M428.50000000000034 1.375 432.88750000000033 -10.375H434.4000000000003L430.01250000000033 1.375Z M465.08750000000043 0.0V-9.125H467.71250000000043Q468.63750000000044 -9.125 469.30625000000043 -8.775Q469.9750000000004 -8.425 470.3500000000004 -7.793750000000001Q470.7250000000004 -7.1625000000000005 470.7250000000004 -6.300000000000001V-2.8375000000000004Q470.7250000000004 -1.975 470.3500000000004 -1.3375000000000001Q469.9750000000004 -0.7000000000000001 469.30625000000043 -0.35000000000000003Q468.63750000000044 0.0 467.71250000000043 0.0ZM466.5500000000004 -1.3375000000000001H467.71250000000043Q468.4375000000004 -1.3375000000000001 468.8500000000004 -1.7375000000000003Q469.26250000000044 -2.1375 469.26250000000044 -2.8375000000000004V-6.300000000000001Q469.26250000000044 -6.987500000000001 468.8500000000004 -7.387500000000001Q468.4375000000004 -7.7875000000000005 467.71250000000043 -7.7875000000000005H466.5500000000004Z M476.95000000000044 0.125Q476.08750000000043 0.125 475.4562500000004 -0.2Q474.82500000000044 -0.525 474.4875000000004 -1.13125Q474.15000000000043 -1.7375 474.15000000000043 -2.5500000000000003V-6.575Q474.15000000000043 -7.4 474.4875000000004 -8.0Q474.82500000000044 -8.6 475.4562500000004 -8.925Q476.08750000000043 -9.25 476.95000000000044 -9.25Q477.82500000000044 -9.25 478.45000000000044 -8.925Q479.07500000000044 -8.6 479.4125000000005 -8.0Q479.75000000000045 -7.4 479.75000000000045 -6.575V-2.5500000000000003Q479.75000000000045 -1.7375 479.4125000000005 -1.13125Q479.07500000000044 -0.525 478.45000000000044 -0.2Q477.82500000000044 0.125 476.95000000000044 0.125ZM476.95000000000044 -1.1625Q477.61250000000047 -1.1625 477.95625000000047 -1.5250000000000001Q478.30000000000047 -1.8875000000000002 478.30000000000047 -2.5500000000000003V-6.575Q478.30000000000047 -7.25 477.95625000000047 -7.60625Q477.61250000000047 -7.9625 476.95000000000044 -7.9625Q476.2875000000004 -7.9625 475.9437500000004 -7.60625Q475.6000000000004 -7.25 475.6000000000004 -6.575V-2.5500000000000003Q475.6000000000004 -1.8875000000000002 475.95000000000044 -1.5250000000000001Q476.30000000000047 -1.1625 476.95000000000044 -1.1625Z M483.30000000000047 0.0V-9.125H486.17500000000047Q487.06250000000045 -9.125 487.71875000000045 -8.79375Q488.37500000000045 -8.4625 488.73750000000047 -7.85625Q489.1000000000005 -7.25 489.1000000000005 -6.4375Q489.1000000000005 -5.525 488.6375000000005 -4.84375Q488.17500000000047 -4.1625000000000005 487.38750000000044 -3.8875L489.2250000000005 0.0H487.5875000000005L485.95000000000044 -3.6875H484.75000000000045V0.0ZM484.75000000000045 -4.9750000000000005H486.17500000000047Q486.8375000000005 -4.9750000000000005 487.2312500000005 -5.356250000000001Q487.62500000000045 -5.737500000000001 487.62500000000045 -6.4Q487.62500000000045 -7.0625 487.2312500000005 -7.45Q486.8375000000005 -7.8375 486.17500000000047 -7.8375H484.75000000000045Z M492.3875000000005 0.0V-9.125H495.0125000000005Q495.9375000000005 -9.125 496.6062500000005 -8.775Q497.2750000000005 -8.425 497.6500000000005 -7.793750000000001Q498.0250000000005 -7.1625000000000005 498.0250000000005 -6.300000000000001V-2.8375000000000004Q498.0250000000005 -1.975 497.6500000000005 -1.3375000000000001Q497.2750000000005 -0.7000000000000001 496.6062500000005 -0.35000000000000003Q495.9375000000005 0.0 495.0125000000005 0.0ZM493.8500000000005 -1.3375000000000001H495.0125000000005Q495.73750000000047 -1.3375000000000001 496.1500000000005 -1.7375000000000003Q496.5625000000005 -2.1375 496.5625000000005 -2.8375000000000004V-6.300000000000001Q496.5625000000005 -6.987500000000001 496.1500000000005 -7.387500000000001Q495.73750000000047 -7.7875000000000005 495.0125000000005 -7.7875000000000005H493.8500000000005Z M501.5000000000005 0.0V-9.125H504.3750000000005Q505.2625000000005 -9.125 505.9187500000005 -8.79375Q506.5750000000005 -8.4625 506.9375000000005 -7.85625Q507.3000000000005 -7.25 507.3000000000005 -6.4375Q507.3000000000005 -5.525 506.83750000000055 -4.84375Q506.3750000000005 -4.1625000000000005 505.5875000000005 -3.8875L507.4250000000005 0.0H505.78750000000053L504.1500000000005 -3.6875H502.9500000000005V0.0ZM502.9500000000005 -4.9750000000000005H504.3750000000005Q505.03750000000053 -4.9750000000000005 505.43125000000055 -5.356250000000001Q505.8250000000005 -5.737500000000001 505.8250000000005 -6.4Q505.8250000000005 -7.0625 505.43125000000055 -7.45Q505.03750000000053 -7.8375 504.3750000000005 -7.8375H502.9500000000005Z M510.7375000000005 0.0V-9.125H516.1500000000005V-7.8500000000000005H512.1750000000005V-5.362500000000001H515.7125000000005V-4.0875H512.1750000000005V-1.2750000000000001H516.1500000000005V0.0Z M522.5000000000005 0.125Q521.6375000000005 0.125 520.9937500000005 -0.2Q520.3500000000005 -0.525 520.0000000000005 -1.13125Q519.6500000000005 -1.7375 519.6500000000005 -2.5500000000000003V-6.575Q519.6500000000005 -7.4 520.0000000000005 -8.0Q520.3500000000005 -8.6 520.9937500000005 -8.925Q521.6375000000005 -9.25 522.5000000000005 -9.25Q523.3750000000005 -9.25 524.0062500000005 -8.91875Q524.6375000000005 -8.5875 524.9875000000005 -7.99375Q525.3375000000005 -7.4 525.3375000000005 -6.575H523.8875000000005Q523.8875000000005 -7.25 523.5250000000005 -7.60625Q523.1625000000005 -7.9625 522.5000000000005 -7.9625Q521.8375000000005 -7.9625 521.4687500000005 -7.60625Q521.1000000000005 -7.25 521.1000000000005 -6.575V-2.5500000000000003Q521.1000000000005 -1.8875000000000002 521.4687500000005 -1.5250000000000001Q521.8375000000005 -1.1625 522.5000000000005 -1.1625Q523.1625000000005 -1.1625 523.5250000000005 -1.5250000000000001Q523.8875000000005 -1.8875000000000002 523.8875000000005 -2.5500000000000003H525.3375000000005Q525.3375000000005 -1.75 524.9875000000005 -1.14375Q524.6375000000005 -0.5375 524.0062500000005 -0.20625Q523.3750000000005 0.125 522.5000000000005 0.125Z M528.8125000000006 0.0V-9.125H530.2750000000005V-5.4H532.8250000000005V-9.125H534.2875000000005V0.0H532.8250000000005V-4.05H530.2750000000005V0.0Z M539.9250000000005 0.0V-7.7875000000000005H537.5000000000006V-9.137500000000001H543.8000000000005V-7.7875000000000005H541.3750000000006V0.0Z M547.9250000000005 2.0 548.9250000000005 -1.8875000000000002H550.8250000000006L549.2000000000006 2.0Z M565.1625000000006 0.0V-9.125H566.9625000000007L569.5625000000006 -1.6500000000000001Q569.5375000000006 -2.025 569.4937500000005 -2.54375Q569.4500000000006 -3.0625 569.4250000000006 -3.61875Q569.4000000000007 -4.175 569.4000000000007 -4.6125V-9.125H570.7375000000006V0.0H568.9375000000006L566.3500000000006 -7.4750000000000005Q566.3875000000006 -7.1375 566.4187500000006 -6.6375Q566.4500000000006 -6.1375 566.4750000000006 -5.60625Q566.5000000000006 -5.075 566.5000000000006 -4.625V0.0Z M574.6250000000007 0.0V-9.125H576.0875000000007V-1.35H580.0125000000006V0.0Z"/>
</svg>
